<svg xmlns="http://www.w3.org/2000/svg" viewBox="0 0 227.23 336.65"><defs><style>.cls-1{fill:#fff;}</style></defs><g id="Layer_2" data-name="Layer 2"><g id="arrowmd"><path class="cls-1" d="M224.3,161.26a10,10,0,0,1,0,14.14l-13,13L63.05,336.65,43,316.57,184.14,175.4a10,10,0,0,0,0-14.14L43,20.08,63.05,0,211.29,148.25Z"/></g><g id="arrowsm"><path class="cls-1" d="M139.58,164.53a5.38,5.38,0,0,1,0,7.59l-7,7L53,258.67,42.25,247.89,118,172.12a5.36,5.36,0,0,0,0-7.59L42.25,88.76,53,78l79.56,79.57Z"/></g><g id="diamond"><rect class="cls-1" x="6.43" y="152.8" width="31.05" height="31.05" transform="translate(125.45 33.77) rotate(45)"/></g></g></svg>