<svg xmlns="http://www.w3.org/2000/svg" viewBox="0 0 77 68.6"><defs><style>.cls-1{fill:#fada6c;}</style></defs><g id="Layer_2" data-name="Layer 2"><g id="Layer_1-2" data-name="Layer 1"><path class="cls-1" d="M74.5,1.2C59.87-.29,44.6-1.55,30.92,4.94A34.81,34.81,0,0,0,16.61,17.07a31.87,31.87,0,0,0-5,17.11,31.45,31.45,0,0,0,6.22,19.27,2.58,2.58,0,0,0,3.42.9,2.52,2.52,0,0,0,.9-3.42,27.61,27.61,0,0,1-2-30.1C26.11,10.58,38.41,6.09,49.66,5.18c8.28-.67,16.59.18,24.84,1A2.52,2.52,0,0,0,77,3.7a2.55,2.55,0,0,0-2.5-2.5Z"/><path class="cls-1" d="M35.59,37.51l1.32,12.68.68,6.47A20.56,20.56,0,0,1,38,61.84c-.21,1.22-1.48,1.26-2.53,1.36-2.07.2-4.16.3-6.24.36a111.12,111.12,0,0,1-12.24-.34A107.42,107.42,0,0,1,3.12,61.14C0,60.46-1.35,65.27,1.8,66a114.51,114.51,0,0,0,27.38,2.6c2.2-.07,4.42-.17,6.61-.39,2-.2,4.08-.63,5.51-2.17A7.43,7.43,0,0,0,43,60.31c-.15-2.22-.45-4.43-.68-6.64L40.59,37.51a2.57,2.57,0,0,0-2.5-2.5,2.52,2.52,0,0,0-2.5,2.5Z"/></g></g></svg>