<svg xmlns="http://www.w3.org/2000/svg" viewBox="0 0 686.05 331.75"><defs><style>.cls-1{fill:#2f323a;}.cls-2{fill:#fff;}.cls-3{fill:#fada6c;}.cls-4{font-size:80.05px;fill:#d26f71;stroke-linejoin:round;}.cls-4,.cls-7{stroke:#2f323a;font-family:PlanetKosmos, Planet Kosmos;}.cls-5{letter-spacing:-0.01em;}.cls-6{letter-spacing:0.02em;}.cls-7{font-size:33.25px;fill:#56b1e8;stroke-miterlimit:10;}</style></defs><g id="Layer_2" data-name="Layer 2"><g id="Layer_1-2" data-name="Layer 1"><path class="cls-1" d="M489.79,331.75a15,15,0,0,1-14.13-20C521,184.21,514.81,179.62,466.8,144a15,15,0,0,1,11.53-26.82c15.58,2.73,25.75,3.9,34,3.9,31,0,45-16.87,93.9-112.84A15,15,0,0,1,633.74,20c-45.31,127.53-39.15,132.11,8.87,167.78a15,15,0,0,1-8.94,27,15.13,15.13,0,0,1-2.6-.22c-15.58-2.73-25.75-3.9-34-3.9-31,0-45,16.88-93.9,112.84A14.94,14.94,0,0,1,489.79,331.75Z"/><path class="cls-1" d="M51.82,212.91a17.94,17.94,0,0,1-7.52-1.61,20.22,20.22,0,0,1-7.84,1.61H17.24A16.9,16.9,0,0,1,0,196a18.83,18.83,0,0,1,2.36-9l.22-.41L39.8,122.19c5-8.63,12.48-9.57,15.47-9.57A16.44,16.44,0,0,1,69,120c.15.22.3.47.45.71L80,138.83a16.3,16.3,0,0,1,.94,1.81H95.45a16.85,16.85,0,0,1,17.16,16.92,18.92,18.92,0,0,1-2.35,9L110,167l-20,34.51a22.23,22.23,0,0,1-7.78,8A21,21,0,0,1,71,212.91Z"/><path class="cls-1" d="M83,212.91A16.9,16.9,0,0,1,65.8,196a18.83,18.83,0,0,1,2.36-9c.07-.14.14-.27.22-.4,9-15.49,9-15.53,9-15.57a22.32,22.32,0,0,1,4.24-5.16,19.49,19.49,0,0,1,2.06-5.77c.08-.15.16-.3.25-.45L88.37,152a22.22,22.22,0,0,1,7.75-8,21.29,21.29,0,0,1,11.34-3.39h53.79a16.85,16.85,0,0,1,17.16,16.92,19,19,0,0,1-2.34,9c-.08.13-.15.27-.23.41l-20,34.51a22.35,22.35,0,0,1-7.79,8,21,21,0,0,1-11.24,3.39Z"/><path class="cls-1" d="M148.69,212.91A16.91,16.91,0,0,1,131.44,196a18.94,18.94,0,0,1,2.36-9c.07-.14.14-.26.22-.39L154,152a22.23,22.23,0,0,1,7.78-8,21.23,21.23,0,0,1,11.33-3.39h19.21a16.85,16.85,0,0,1,17.16,16.92,18.92,18.92,0,0,1-2.35,9c-.07.14-.14.27-.22.4l-20,34.52a22.35,22.35,0,0,1-7.79,8,21,21,0,0,1-11.24,3.39Z"/><path class="cls-1" d="M213.93,212.91a18,18,0,0,1-7.53-1.61,20.19,20.19,0,0,1-7.84,1.61H179.34A16.9,16.9,0,0,1,162.1,196a18.94,18.94,0,0,1,2.36-9l.21-.39,37.23-64.37c5-8.63,12.48-9.57,15.47-9.57a16.47,16.47,0,0,1,13.68,7.4l.45.71,10.65,18.1a18.12,18.12,0,0,1,.93,1.81h14.47a16.86,16.86,0,0,1,17.17,16.92,18.93,18.93,0,0,1-2.36,9l-.24.45-4.44,7.6a22.26,22.26,0,0,1-7.76,8,22.8,22.8,0,0,1-5.82,2.62,20.14,20.14,0,0,1,.76,5.62A22.16,22.16,0,0,1,251.92,202l-.09.15a21.51,21.51,0,0,1-7.91,7.73,21.21,21.21,0,0,1-10.78,3Z"/><path class="cls-1" d="M245,212.91A16.91,16.91,0,0,1,227.74,196a18.94,18.94,0,0,1,2.36-9l.22-.4c9-15.49,9-15.53,9-15.57a22.58,22.58,0,0,1,4.24-5.16,19.78,19.78,0,0,1,2.06-5.77l.25-.44,4.43-7.6a22.25,22.25,0,0,1,7.76-8,21.23,21.23,0,0,1,11.33-3.39h53.8a16.86,16.86,0,0,1,17.16,16.92,18.88,18.88,0,0,1-2.35,9l-.22.4-20,34.53a22.18,22.18,0,0,1-7.79,8,21,21,0,0,1-11.24,3.39Z"/><path class="cls-1" d="M311,212.91A16.9,16.9,0,0,1,293.79,196a18.93,18.93,0,0,1,2.35-9c.07-.14.14-.26.21-.38l24.42-42.28,12.82-22.11c5-8.63,12.47-9.56,15.46-9.56a16.45,16.45,0,0,1,13.68,7.4c.16.23.31.47.45.71l10.65,18.1a19,19,0,0,1,2.55,9.77,22.12,22.12,0,0,1-2.94,11.12l-24.17,41.79a22.35,22.35,0,0,1-7.79,8,21,21,0,0,1-11.24,3.39Z"/><path class="cls-1" d="M341.29,212.91A16.9,16.9,0,0,1,324.05,196a18.93,18.93,0,0,1,2.35-9l.23-.41,20-34.5a22.31,22.31,0,0,1,7.78-8,21.26,21.26,0,0,1,11.33-3.39h53.8a16.86,16.86,0,0,1,17.16,16.92,18.92,18.92,0,0,1-2.35,9l-.26.46-4.43,7.59a21.27,21.27,0,0,1-4.31,5.38,19.13,19.13,0,0,1-2.45,6.35l-8.75,15.13a22.18,22.18,0,0,1-7.78,8,21.07,21.07,0,0,1-11.25,3.39Z"/><path class="cls-1" d="M406.53,212.91A16.9,16.9,0,0,1,389.29,196a18.93,18.93,0,0,1,2.35-9l.23-.41,20-34.5a22.2,22.2,0,0,1,7.77-8A21.27,21.27,0,0,1,431,140.64h19.21a16.86,16.86,0,0,1,17.16,16.92,18.88,18.88,0,0,1-2.35,9c-.06.12-.14.26-.22.4l-20,34.53a22.23,22.23,0,0,1-7.78,8,21.07,21.07,0,0,1-11.25,3.39Z"/><path class="cls-1" d="M438,212.91A16.9,16.9,0,0,1,420.75,196a18.93,18.93,0,0,1,2.35-9l.23-.41,20-34.5a22.31,22.31,0,0,1,7.78-8,21.26,21.26,0,0,1,11.33-3.39h19.22a17.79,17.79,0,0,1,7.48,1.61,20.36,20.36,0,0,1,7.89-1.61H516.2a16.86,16.86,0,0,1,17.16,16.92,18.92,18.92,0,0,1-2.35,9c-.06.12-.14.25-.21.38l-20,34.54a22.23,22.23,0,0,1-7.78,8,21.07,21.07,0,0,1-11.25,3.39Z"/><path class="cls-1" d="M578.16,240.93a16.28,16.28,0,0,1-14.17-8.4l-10.51-17.78-.27-.47c-.24-.44-.46-.9-.67-1.37H538.06a17.88,17.88,0,0,1-7.54-1.62,20,20,0,0,1-7.84,1.62H503.47A16.9,16.9,0,0,1,486.23,196a18.92,18.92,0,0,1,2.35-9l.21-.39,20-34.53a22.28,22.28,0,0,1,7.77-8,21.27,21.27,0,0,1,11.34-3.39h88.37a16.85,16.85,0,0,1,17.16,16.92,18.87,18.87,0,0,1-2.34,9l-.22.39-37.15,64.37C588.72,240,581.17,240.93,578.16,240.93Z"/><path class="cls-1" d="M570.6,166.9a15.7,15.7,0,0,1-15.93-15.8,16.51,16.51,0,0,1,2-7.89c.08-.16.24-.43.24-.43l3.8-6.58a18.46,18.46,0,0,1,5.93-6.06,17.62,17.62,0,0,1,9.46-2.82h8A15.7,15.7,0,0,1,600,143.12a16.51,16.51,0,0,1-2.35,8.43l-3.59,6.2a17.88,17.88,0,0,1-6.2,6.42,17.46,17.46,0,0,1-9.31,2.73Z"/><path class="cls-1" d="M597.9,166.9a16,16,0,0,1-3.17-.31,16.37,16.37,0,0,1-3.2.31h-8a15.69,15.69,0,0,1-15.93-15.8,16.51,16.51,0,0,1,2-7.89c.08-.16.23-.43.23-.43l3.81-6.58a16.87,16.87,0,0,1,1.46-2.08,16.54,16.54,0,0,1,1-2.1c.1-.2,2.14-3.76,2.16-3.78a18.33,18.33,0,0,1,5.93-6.08,17.73,17.73,0,0,1,9.47-2.82h8a16.78,16.78,0,0,1,3.17.31,17.24,17.24,0,0,1,3.19-.31h8A15.7,15.7,0,0,1,632,135.14a16.47,16.47,0,0,1-2.33,8.39l-1.89,3.3a18.33,18.33,0,0,1-1.47,2.1,17,17,0,0,1-1,2.13l-.22.38L621.29,158a18.42,18.42,0,0,1-5.95,6.09,17.59,17.59,0,0,1-9.46,2.82Z"/><path class="cls-1" d="M627.22,178.54a15.57,15.57,0,0,1-13-7,8.65,8.65,0,0,1-.47-.76l-2.29-3.9h-.92a15.69,15.69,0,0,1-15.93-15.8,16.5,16.5,0,0,1,2-7.89l.23-.42,8.28-14.3a18.22,18.22,0,0,1,15.55-9.15h8a16.89,16.89,0,0,1,3.18.31,17.26,17.26,0,0,1,3.2-.31h8a15.68,15.68,0,0,1,15.9,15.8,16.58,16.58,0,0,1-2,7.88c-.07.14-.15.27-.23.41l-15.43,26.74A16.21,16.21,0,0,1,627.22,178.54Z"/><path class="cls-1" d="M637.66,166.9a15.7,15.7,0,0,1-15.93-15.8,16.63,16.63,0,0,1,2-7.86l.25-.45,3.87-6.68a18.07,18.07,0,0,1,3.14-3.86,16.07,16.07,0,0,1,10.66-11.85,18.54,18.54,0,0,1,6.15-1.06h22.35a15.69,15.69,0,0,1,15.9,15.8,16.57,16.57,0,0,1-2,7.91l-.22.4-3.66,6.32a17.65,17.65,0,0,1-3.36,4.25,16.07,16.07,0,0,1-10.64,11.82A18.56,18.56,0,0,1,660,166.9Z"/><path class="cls-2" d="M489.79,326.9a10,10,0,0,1-9.42-13.35c45-126.76,40.9-135.21-10.59-173.47a10,10,0,0,1,6-18,10.2,10.2,0,0,1,1.73.15c15.88,2.78,26.31,4,34.87,4,33.59,0,48.29-17.28,98.35-115.57A10,10,0,0,1,629,18.5C584,145.26,588.13,153.71,639.62,192a10,10,0,0,1-6,18,10.2,10.2,0,0,1-1.73-.15c-15.88-2.78-26.3-4-34.87-4-33.59,0-48.29,17.28-98.35,115.57A10,10,0,0,1,489.79,326.9Z"/><path class="cls-2" d="M51.82,208.06a12.58,12.58,0,0,1-7.36-2.27,16,16,0,0,1-8,2.27H17.24c-7,0-12.24-5.13-12.24-11.92a13.92,13.92,0,0,1,1.76-6.67c0-.09.09-.18.14-.26l37.23-64.36c3.55-6.16,8.5-7.08,11.14-7.08A11.47,11.47,0,0,1,64.79,123c.1.15.2.31.29.47l10.65,18.09a12.86,12.86,0,0,1,1.6,4.28H95.45a11.77,11.77,0,0,1,12.16,11.92,14,14,0,0,1-1.75,6.66l-.15.27-20,34.51a17.44,17.44,0,0,1-6.1,6.28,16.22,16.22,0,0,1-8.6,2.63Z"/><path class="cls-2" d="M83,208.06c-7,0-12.24-5.13-12.24-11.92a13.92,13.92,0,0,1,1.76-6.67l.14-.26,9-15.51a17.92,17.92,0,0,1,4.68-5.15,14.15,14.15,0,0,1,1.74-6l.16-.29,4.44-7.6a17.33,17.33,0,0,1,6.08-6.26,16.3,16.3,0,0,1,8.69-2.63h53.79a11.77,11.77,0,0,1,12.16,11.92,14,14,0,0,1-1.75,6.66l-.15.27-20,34.51a17.44,17.44,0,0,1-6.1,6.28,16.2,16.2,0,0,1-8.6,2.63Z"/><path class="cls-2" d="M148.69,208.06c-7,0-12.25-5.13-12.25-11.92a13.92,13.92,0,0,1,1.76-6.67l.15-.26,20-34.51a17.5,17.5,0,0,1,6.09-6.28,16.3,16.3,0,0,1,8.69-2.63h19.21a11.77,11.77,0,0,1,12.16,11.92,14,14,0,0,1-1.75,6.66l-.15.27-20,34.51a17.44,17.44,0,0,1-6.1,6.28,16.2,16.2,0,0,1-8.6,2.63Z"/><path class="cls-2" d="M213.93,208.06a12.61,12.61,0,0,1-7.37-2.27,16,16,0,0,1-8,2.27H179.34c-7,0-12.24-5.13-12.24-11.92a13.92,13.92,0,0,1,1.76-6.67l.15-.26,37.22-64.36c3.55-6.16,8.5-7.08,11.14-7.08a11.46,11.46,0,0,1,9.52,5.17l.3.48,10.65,18.1a13.1,13.1,0,0,1,1.59,4.27h18.12a11.78,11.78,0,0,1,12.17,11.92,13.89,13.89,0,0,1-1.76,6.66c0,.1-.11.2-.17.3l-4.43,7.6a17.41,17.41,0,0,1-6.08,6.26,16.25,16.25,0,0,1-8.61,2.63h-2.21l1.54,2.61a14,14,0,0,1,1.86,7.24,17.16,17.16,0,0,1-2.28,8.65.31.31,0,0,0-.05.1,16.72,16.72,0,0,1-6.12,5.94,16.39,16.39,0,0,1-8.27,2.36Z"/><path class="cls-2" d="M245,208.06c-7,0-12.25-5.13-12.25-11.92a14,14,0,0,1,1.76-6.67l.15-.26s8.94-15.47,9-15.51a17.88,17.88,0,0,1,4.67-5.15,14.19,14.19,0,0,1,1.74-6c.05-.1.11-.19.17-.29l4.43-7.6a17.33,17.33,0,0,1,6.08-6.26,16.3,16.3,0,0,1,8.69-2.63h53.8a11.78,11.78,0,0,1,12.16,11.92,14,14,0,0,1-1.75,6.65c-.05.1-.11.19-.16.28l-20,34.51a17.44,17.44,0,0,1-6.1,6.28,16.17,16.17,0,0,1-8.6,2.63Z"/><path class="cls-2" d="M311,208.06c-7,0-12.24-5.13-12.24-11.92a14,14,0,0,1,1.75-6.67l.15-.26,24.41-42.27,12.82-22.1c3.55-6.15,8.5-7.07,11.13-7.07a11.46,11.46,0,0,1,9.52,5.17q.17.24.3.48l10.65,18.09a14,14,0,0,1,1.86,7.23,17.23,17.23,0,0,1-2.28,8.65l-24.16,41.76a17.44,17.44,0,0,1-6.1,6.28,16.17,16.17,0,0,1-8.6,2.63Z"/><path class="cls-2" d="M341.29,208.06c-7,0-12.25-5.13-12.25-11.92a14,14,0,0,1,1.76-6.67l.15-.26,20-34.51a17.5,17.5,0,0,1,6.09-6.28,16.35,16.35,0,0,1,8.69-2.63h53.8a11.78,11.78,0,0,1,12.16,11.92,13.89,13.89,0,0,1-1.76,6.66l-.16.3-4.44,7.6a17.06,17.06,0,0,1-4.71,5.32,13.54,13.54,0,0,1-2,6.35l-8.79,15.21a17.5,17.5,0,0,1-6.09,6.28,16.25,16.25,0,0,1-8.61,2.63Z"/><path class="cls-2" d="M406.53,208.06c-7,0-12.24-5.13-12.24-11.92a14,14,0,0,1,1.75-6.67l.15-.26,20-34.51a17.44,17.44,0,0,1,6.1-6.28,16.27,16.27,0,0,1,8.68-2.63h19.22a11.78,11.78,0,0,1,12.16,11.92,14,14,0,0,1-1.75,6.65,2.54,2.54,0,0,1-.16.28l-20,34.51a17.44,17.44,0,0,1-6.1,6.28,16.17,16.17,0,0,1-8.6,2.63Z"/><path class="cls-2" d="M438,208.06c-7,0-12.24-5.13-12.24-11.92a14,14,0,0,1,1.75-6.67l.15-.26,20-34.51a17.5,17.5,0,0,1,6.09-6.28,16.32,16.32,0,0,1,8.69-2.63h19.22a12.5,12.5,0,0,1,7.3,2.26,16.12,16.12,0,0,1,8.07-2.26H516.2a11.78,11.78,0,0,1,12.16,11.92,13.89,13.89,0,0,1-1.76,6.66c0,.09-.1.18-.15.27l-20,34.51a17.5,17.5,0,0,1-6.09,6.28,16.23,16.23,0,0,1-8.61,2.63Z"/><path class="cls-2" d="M578.16,236.07a11.24,11.24,0,0,1-9.84-5.88l-10.54-17.84c-.06-.1-.12-.2-.17-.3a13.65,13.65,0,0,1-1.42-4H538.06a12.66,12.66,0,0,1-7.37-2.27,16,16,0,0,1-8,2.27H503.47c-7,0-12.24-5.13-12.24-11.92a14,14,0,0,1,1.75-6.66l.15-.27,20-34.51a17.5,17.5,0,0,1,6.09-6.28,16.35,16.35,0,0,1,8.69-2.63h88.38a11.78,11.78,0,0,1,12.16,11.92,14,14,0,0,1-1.75,6.65c0,.09-.09.18-.15.27L589.38,229C585.82,235.15,580.82,236.07,578.16,236.07Z"/><path class="cls-2" d="M570.6,162.05a10.75,10.75,0,0,1-10.93-10.8,11.55,11.55,0,0,1,1.43-5.54l.15-.26S565,139,565,138.93a13.28,13.28,0,0,1,4.33-4.43,12.65,12.65,0,0,1,6.77-2h8A10.75,10.75,0,0,1,595,143.27a11.51,11.51,0,0,1-1.65,5.87l-3.61,6.26a13,13,0,0,1-4.53,4.67,12.45,12.45,0,0,1-6.66,2Z"/><path class="cls-2" d="M597.9,162.05a11.58,11.58,0,0,1-3.15-.44,12.08,12.08,0,0,1-3.22.44h-8a10.75,10.75,0,0,1-10.93-10.8,11.55,11.55,0,0,1,1.43-5.54,2.15,2.15,0,0,1,.14-.26l3.77-6.52a13.35,13.35,0,0,1,1.59-2.14,12.53,12.53,0,0,1,.95-2.25c0-.08,2-3.54,2.06-3.6a13.35,13.35,0,0,1,4.33-4.42,12.57,12.57,0,0,1,6.77-2h8a11.58,11.58,0,0,1,3.15.44,12.18,12.18,0,0,1,3.21-.44h8A10.75,10.75,0,0,1,627,135.29a11.51,11.51,0,0,1-1.63,5.85l-1.89,3.28a12.84,12.84,0,0,1-1.59,2.13,12.27,12.27,0,0,1-.94,2.26l-.15.26L617,155.6a13.44,13.44,0,0,1-4.33,4.42,12.71,12.71,0,0,1-6.77,2Z"/><path class="cls-2" d="M627.22,173.69a10.61,10.61,0,0,1-8.83-4.78l-.3-.48-3.73-6.38h-3.79a10.75,10.75,0,0,1-10.93-10.8,11.55,11.55,0,0,1,1.43-5.54c0-.09.09-.18.14-.27l8.28-14.3a13.12,13.12,0,0,1,4.52-4.67,12.65,12.65,0,0,1,6.7-2h8a11.33,11.33,0,0,1,3.16.45,11.81,11.81,0,0,1,3.22-.45h8a10.73,10.73,0,0,1,10.9,10.8,11.6,11.6,0,0,1-1.42,5.52l-.15.28L637,167.82A11.27,11.27,0,0,1,627.22,173.69Z"/><path class="cls-2" d="M637.66,162.05a10.76,10.76,0,0,1-10.93-10.8,11.6,11.6,0,0,1,1.42-5.52,2.54,2.54,0,0,1,.16-.28l3.78-6.54a13.16,13.16,0,0,1,3.6-3.91,10.92,10.92,0,0,1,7.59-9.73,13.77,13.77,0,0,1,4.52-.78h22.35a10.73,10.73,0,0,1,10.9,10.8,11.66,11.66,0,0,1-1.43,5.54l-.15.26-3.66,6.33a13.12,13.12,0,0,1-3.72,4.14,10.91,10.91,0,0,1-7.58,9.71,13.84,13.84,0,0,1-4.5.78Z"/><path class="cls-3" d="M489.8,317.1a.45.45,0,0,1-.2,0,.5.5,0,0,1-.27-.63c22.84-64.28,33.38-99.17,31.53-123.57s-15.51-38.48-45.42-60.7a.5.5,0,0,1,.3-.9h.09c16.45,2.88,27.37,4.11,36.51,4.11,40.86,0,57.76-24.44,106.82-120.75a.49.49,0,0,1,.45-.28.65.65,0,0,1,.19,0,.51.51,0,0,1,.28.63c-22.85,64.29-33.39,99.17-31.54,123.57s15.52,38.49,45.42,60.7a.51.51,0,0,1,.16.6.49.49,0,0,1-.46.3h-.09c-16.45-2.89-27.36-4.12-36.51-4.12-40.86,0-57.76,24.44-106.82,120.76A.5.5,0,0,1,489.8,317.1Z"/><path class="cls-1" d="M619.61,14.85c-45,126.64-43.85,141.82,14,184.84-14.3-2.5-26.21-4.11-36.6-4.12-41.21,0-58.54,25.38-107.26,121,45-126.64,43.84-141.82-14.06-184.84,14.3,2.51,26.21,4.12,36.6,4.12,41.21,0,58.55-25.38,107.27-121m0-1a1,1,0,0,0-.9.55c-24.69,48.48-41,78.17-56.32,96.19-14.87,17.48-28.91,24.29-50,24.29-9.11,0-20-1.23-36.43-4.1l-.17,0a1,1,0,0,0-.59,1.8c29.77,22.13,43.37,36.09,45.21,60.34s-8.69,59.15-31.51,123.37a1,1,0,0,0,.55,1.25.92.92,0,0,0,.4.08,1,1,0,0,0,.89-.54c24.69-48.48,41-78.17,56.31-96.19,14.88-17.48,28.92-24.3,50-24.3,9.13,0,20,1.23,36.44,4.11h.17a1,1,0,0,0,.6-1.8c-29.78-22.12-43.37-36.08-45.22-60.33s8.69-59.15,31.51-123.37a1,1,0,0,0-.55-1.26,1.09,1.09,0,0,0-.39-.08Z"/><text class="cls-4" transform="translate(14.2 197.76)"><tspan class="cls-5">h</tspan><tspan x="65.4" y="0">aikalci</tspan><tspan class="cls-6" x="420.75" y="0">u</tspan><tspan x="487.43" y="0">m</tspan></text><text class="cls-7" transform="translate(569.5 151.75)">.xyz</text></g></g></svg>