<svg xmlns="http://www.w3.org/2000/svg" viewBox="0 0 52.12 75.57"><defs><style>.cls-1{fill:#fada6c;}</style></defs><g id="Layer_2" data-name="Layer 2"><g id="Layer_1-2" data-name="Layer 1"><path class="cls-1" d="M8.5,5.53Q19,5.05,29.44,5c3.44,0,6.89-.06,10.32.1,2.46.11,4.55.77,5.87,3,2.61,4.31,1.49,10-.25,14.39C43.22,27.94,39.48,32.75,36,37.4L21.75,56.09a2.51,2.51,0,0,0,.9,3.42,2.55,2.55,0,0,0,3.42-.89l13.59-17.9c4-5.21,7.92-10.44,10.39-16.54,2.25-5.57,3.08-12.16.38-17.72A10.87,10.87,0,0,0,44.36.88C41.13-.29,37.31.05,33.93,0Q21.21-.06,8.5.53c-3.2.14-3.22,5.15,0,5Z"/><path class="cls-1" d="M.44,54.27,9.22,67.18a33.67,33.67,0,0,0,4.14,5.55,9.85,9.85,0,0,0,6.07,2.77c4.51.46,9.34-1.53,13.52-3a130.7,130.7,0,0,0,14-5.85,2.53,2.53,0,0,0,.9-3.42,2.55,2.55,0,0,0-3.42-.9,117.37,117.37,0,0,1-12.36,5.19q-3.09,1.09-6.24,2a17.91,17.91,0,0,1-5.6,1c-3.79-.12-5.66-4.39-7.51-7.11l-8-11.7C3,49.1-1.38,51.6.44,54.27Z"/></g></g></svg>